<svg xmlns="http://www.w3.org/2000/svg" viewBox="0 0 200 100"><defs><style>.cls-1{opacity:0.4;}.cls-2{font-size:16px;font-family:SourceHanSansHC-Regular-B5pc-H, Source Han Sans HC;}.cls-2,.cls-8{fill:#fff;}.cls-3{letter-spacing:-0.01em;}.cls-4{letter-spacing:-0.02em;}.cls-5{letter-spacing:0em;}.cls-6{letter-spacing:-0.02em;}.cls-7{letter-spacing:0em;}</style></defs><g id="Layer_2" data-name="Layer 2"><g id="Layer_1-2" data-name="Layer 1"><g id="DialogSuccessful"><g class="cls-1"><rect x="0.5" y="0.5" width="199" height="99" rx="4.5"/><path d="M195,1a4,4,0,0,1,4,4V95a4,4,0,0,1-4,4H5a4,4,0,0,1-4-4V5A4,4,0,0,1,5,1H195m0-1H5A5,5,0,0,0,0,5V95a5,5,0,0,0,5,5H195a5,5,0,0,0,5-5V5a5,5,0,0,0-5-5Z"/></g><text class="cls-2" transform="translate(34.9 80.62)"><tspan class="cls-3">R</tspan><tspan x="10" y="0">el</tspan><tspan class="cls-4" x="23.42" y="0">o</tspan><tspan class="cls-5" x="32.86" y="0">ad su</tspan><tspan class="cls-6" x="72.59" y="0">cc</tspan><tspan class="cls-7" x="88.11" y="0">essful</tspan></text><path class="cls-8" d="M100.23,19.65a16,16,0,1,0,16,16A16,16,0,0,0,100.23,19.65Zm-3.2,24-8-8,2.25-2.26L97,39.12,109.17,27l2.26,2.27Z"/></g></g></g></svg>