<svg xmlns="http://www.w3.org/2000/svg" viewBox="0 0 200 100"><defs><style>.cls-1{opacity:0.4;}.cls-2{font-size:16px;font-family:SourceHanSansHC-Regular-B5pc-H, Source Han Sans HC;}.cls-2,.cls-6{fill:#fff;}.cls-3{letter-spacing:-0.02em;}.cls-4{letter-spacing:0em;}.cls-5{letter-spacing:-0.02em;}</style></defs><g id="Layer_2" data-name="Layer 2"><g id="Layer_1-2" data-name="Layer 1"><g id="DialogFailed"><g class="cls-1"><rect x="0.5" y="0.5" width="199" height="99" rx="4.5"/><path d="M195,1a4,4,0,0,1,4,4V95a4,4,0,0,1-4,4H5a4,4,0,0,1-4-4V5A4,4,0,0,1,5,1H195m0-1H5A5,5,0,0,0,0,5V95a5,5,0,0,0,5,5H195a5,5,0,0,0,5-5V5a5,5,0,0,0-5-5Z"/></g><text class="cls-2" transform="translate(30.76 80.88)">Compil<tspan class="cls-3" x="53.6" y="0">a</tspan><tspan class="cls-4" x="62.38" y="0">tion </tspan><tspan class="cls-5" x="95.87" y="0">f</tspan><tspan x="100.72" y="0">ailed</tspan></text><path class="cls-6" d="M100.23,19.65a16,16,0,1,0,16,16A16,16,0,0,0,100.23,19.65Zm1.6,24h-3.2v-3.2h3.2Zm0-6.4h-3.2v-9.6h3.2Z"/></g></g></g></svg>